# xmcd
#
# Track frame offsets:
#	150
#	18616
#	32241
#	49559
#	68282
#	85762
#	104118
#	119227
#	132844
#	150196
#	167538
#	185602
#	200023
#	213493
#	229436
#	246457
#	266570
#
# Disc length: 3750 seconds
#
# Revision: 2
# Processed by: cddbd v1.5.1PL0 Copyright (c) Steve Scherf et al.
# Submitted via: audiograbber 1.83.01
#
DISCID=f50ea411
DTITLE=Various Artist - Top Hits USA RC74
DYEAR=2002
DGENRE=Country
TTITLE0=Tim McGraw - Red Ragtop
TTITLE1=George Strait - She'll Leave you With A Smile
TTITLE2=Faith Hill - Cry
TTITLE3=Montgomery Gentry - My Town
TTITLE4=Dixie Chicks - Landslide
TTITLE5=Alan Jackson - Work In Progress
TTITLE6=Jo Dee Messina - Dare To Dream
TTITLE7=Kevin Denney - Cadillac Tears
TTITLE8=Lee Ann Womack - Something Worth Leaving Behind
TTITLE9=Travis Tritt - Strong Enough To Be Your Man
TTITLE10=Rebecca Lynn Howard - Forgive
TTITLE11=Toby Keith - Who's Your Daddy? [Single Version]
TTITLE12=Rodney Atkins - Sing Along
TTITLE13=Rascal Flatts - These Days
TTITLE14=Willie Nelson - Maria (Shut Up and Kiss Me)
TTITLE15=Tammy Cochran - Life Happened
TTITLE16=Eric Heatherly - The Last Man Committed
EXTD=
EXTT0=
EXTT1=
EXTT2=
EXTT3=
EXTT4=
EXTT5=
EXTT6=
EXTT7=
EXTT8=
EXTT9=
EXTT10=
EXTT11=
EXTT12=
EXTT13=
EXTT14=
EXTT15=
EXTT16=
PLAYORDER=
